<svg width="300" height="300" viewBox="0 0 823 849" fill="none" xmlns="http://www.w3.org/2000/svg">
<path d="M359.012 312.697C359.012 312.697 383.248 324.834 392.781 320.734C392.781 320.734 397.727 315.596 407.619 305.322C414.101 298.063 418.192 293.486 418.969 286.82C419.844 279.444 416.19 273.507 414.46 270.698C407.376 259.183 395.074 255.86 391.177 254.81C386.999 253.683 375.318 250.525 363.842 256.414C357.467 259.688 354.212 264.197 349.373 270.883C342.434 280.474 334.777 291.066 338.12 299.822C339.228 302.717 345.835 306.08 359.022 312.678" fill="#4B00A5"/>
<path d="M410.36 331.958C411.351 336.933 417.006 341.258 428.298 349.896C440.299 359.07 447.927 364.745 455.206 362.451C456.926 361.907 458.452 360.974 465.963 351.684C474.962 340.568 479.461 335.009 480.209 332.308C485.544 312.999 457.072 289.531 446.217 289.434C443.273 289.415 440.455 289.93 437.85 291.242C434.644 292.864 432.788 295.167 431.942 296.236C416.657 315.574 409.019 325.253 410.35 331.948" fill="#4B00A5"/>
<path d="M434.168 423.962C434.76 425.867 435.781 427.014 437.452 428.986C443.885 436.595 453.826 440.667 463.738 439.336C477.177 437.548 487.381 425.051 496.632 416.082C502.355 410.543 508.069 404.984 513.54 399.202C525.22 386.832 537.746 374.636 534.005 358.35C533.315 355.367 532.081 352.238 530.196 348.943C524.773 339.488 515.454 332.929 504.95 330.023C501.782 329.149 497.788 327.983 494.63 329.615C488.119 332.968 486.535 341.014 483.591 349.701C479.519 361.702 472.25 371.371 456.615 390.369C442.661 407.307 431.476 415.197 434.187 423.953" fill="#4B00A5"/>
<path d="M562.584 411.097C562.526 410.659 562.448 410.232 562.37 409.795C561.029 402.866 556.987 396.793 552.099 391.798C549.825 389.485 546.92 386.22 543.82 385.122C539.913 383.81 537.97 388.523 535.696 390.991C531.712 395.306 527.698 399.581 523.666 403.847C511.324 416.859 499.158 431.737 484.018 441.581C481.113 443.466 476.827 445.38 476.264 449.17C475.875 451.784 477.43 454.252 478.926 456.429C483.183 462.648 488.207 469.275 495.572 470.879C499.722 471.783 504.065 470.908 508.059 469.47C523.559 463.872 541.429 451.599 552.371 439.375C559.28 431.669 564.042 421.349 562.594 411.097" fill="#4B00A5"/>
<path d="M461.347 556.393C473.553 545.821 490.694 529.884 509.187 508.603C534.102 479.936 549.407 455.448 547.299 453.65C545.462 452.086 534.51 469.966 511.985 475.816C500.557 478.779 480.675 479.965 472.727 469.577C466.877 461.929 469.899 451.192 462.834 448.101C459.695 446.731 458.005 448.364 451.513 446.848C444.225 445.147 442.593 442.203 440.785 443.029C435.878 445.283 446.917 467.604 443.846 488.837C443.739 489.605 443.603 490.392 443.448 491.189C442.583 495.63 435.975 494.638 436.334 490.13C436.334 490.052 436.344 489.984 436.354 489.916C439.308 451.658 403.441 420.659 394.219 412.681C389.409 408.522 378.204 399.504 367.311 391.157C358.215 384.18 341.841 371.926 342.201 371.421C342.891 370.429 409.019 413.497 430.096 405.5C436.976 402.886 442.651 398.328 442.651 398.328C444.964 396.463 452.203 390.642 453.418 385.764C454.759 380.361 450.328 369.633 378.078 331.948C341.501 312.873 329.627 308.888 318.879 314.01C311.387 317.586 305.935 325.01 295.557 339.12C293.983 341.267 287.705 349.925 281.204 362.442C274.985 374.433 271.72 383.878 268.649 392.935C265.705 401.564 264.189 407.006 263.266 414.459C261.905 425.46 263.839 440.055 265.219 445.721C270.525 467.595 296.325 481.578 318.034 511.11C324.34 519.68 348.537 536.608 355.893 556.801C356.593 602.085 357.283 635.115 357.982 678.746C358.06 683.556 353.532 687.113 348.887 685.889C325.341 679.66 301.786 673.44 278.24 667.212C273.634 665.997 269.125 669.476 269.145 674.237L269.388 782.461C269.388 785.989 271.944 789.001 275.413 789.594L351.792 802.635C355.261 803.227 357.807 806.23 357.817 809.748C357.856 820.223 357.895 830.689 357.934 841.165C357.953 845.168 361.218 848.404 365.222 848.385C395.161 848.278 421.885 848.054 451.824 847.947C455.818 847.928 459.064 844.692 459.064 840.698V809.719C459.064 806.133 461.678 803.091 465.225 802.547C491.258 798.602 517.281 794.657 543.305 790.702C546.842 790.167 549.466 787.116 549.466 783.53V677.765C549.466 673.139 545.2 669.699 540.681 670.681L468.315 686.384C463.757 687.366 459.462 683.858 459.53 679.193C460.133 635.843 460.735 600.977 461.338 556.364" fill="#4B00A5"/>
<path d="M66.4961 300.348C62.4925 299.036 58.3528 299.104 54.874 300.377C50.6274 301.912 47.3624 305.129 45.5063 310.765L43.281 317.548L75.0086 327.945L77.234 321.163C79.0803 315.526 78.3515 311.008 75.8444 307.247C73.794 304.176 70.49 301.66 66.4961 300.357V300.348Z" fill="#4B00A5"/>
<path d="M169.152 129.298C167.888 129.133 166.538 129.434 164.419 131.242L158.346 136.441L165.43 144.72L171.513 139.521C173.632 137.713 174.166 136.479 174.215 135.197C174.244 133.924 173.738 132.447 172.796 131.349C171.805 130.182 170.434 129.454 169.161 129.298H169.152Z" fill="#4B00A5"/>
<path d="M734.467 161.105C722.146 144.332 707.608 129.552 693.79 114.023C686.959 106.152 662.976 89.953 655.445 82.5969C631.637 62.676 618.829 57.0302 592.106 42.8329C536.551 14.4189 474.126 1.32945 412.002 0.182789C349.509 -1.89676 287.647 13.8942 231.606 41.0838C174.584 66.427 125.608 107.989 87.7386 157.315C75.0767 173.679 62.5216 190.306 52.2405 208.4C41.629 226.338 29.074 244.607 21.2611 263.751C13.6135 282.962 10.2804 303.524 5.21754 323.921C-0.19511 344.241 -0.476918 365.483 0.34907 386.327C2.72986 446.702 2.59381 476.933 10.7857 510.556C28.8894 584.827 72.8902 633.045 112.295 676.132C138.386 704.663 179.695 743.883 239.312 779.653C244.142 782.549 250.322 779.089 250.332 773.453C250.38 736.021 250.429 698.589 250.478 661.158C250.478 658.796 249.341 656.6 247.417 655.23C219.411 635.319 177.47 599.345 146.005 541.788C131.895 515.968 106.969 470.335 106.785 406.86C106.639 359.021 121.76 312.707 142.934 270.397C194.174 161.425 307.995 107.454 424.916 109.378C538.009 111.497 629.577 176.623 677.601 277.588C693.673 310.822 702.876 327.322 706.462 359.546C708.007 373.461 710.815 397.123 709.212 413.915C702.769 481.403 691.778 530.632 643.298 584.02C630.412 598.208 607.829 621.821 573.283 656.367C570.592 657.504 568.784 660.128 568.774 663.062C568.677 700.98 568.58 737.391 568.473 775.095C568.454 780.887 574.896 784.376 579.736 781.178C648.681 735.594 755.321 648.69 802.597 514.005C819.34 466.312 822.421 431.125 822.751 422.476C826.337 328.44 790.926 235.298 734.458 161.095L734.467 161.105ZM68.4202 430.581L17.6074 428.346L18.9095 398.348L27.6164 398.736L26.7321 419.085L37.2561 419.551L37.9266 404.198L46.6335 404.577L45.963 419.93L60.1117 420.552L61.0349 399.485L69.7417 399.864L68.4007 430.571L68.4202 430.581ZM76.6315 355.824L39.2094 377.611L71.8504 383.286L70.1985 392.789L20.095 384.082L21.2611 377.397L58.6832 355.61L26.0421 349.935L27.6941 340.431L77.8073 349.138L76.6315 355.824ZM85.1829 324.883L80.295 339.809L32.0087 323.989L36.8966 309.063C39.3746 301.523 42.6494 297.111 46.8182 294.196C53.1443 289.813 61.5013 288.559 69.4988 291.183C77.4963 293.807 83.492 299.754 85.9894 307.042C87.6122 311.862 87.6414 317.352 85.1731 324.893L85.1829 324.883ZM96.9022 293.097L50.3845 272.574L54.2715 263.751L100.789 284.274L96.9022 293.097ZM123.217 242.236L80.6254 249.942L109.36 266.413L104.56 274.78L60.4518 249.495L63.8238 243.606L106.416 235.9L77.6809 219.429L82.4814 211.062L126.589 236.347L123.217 242.236ZM146.879 210.8C137.21 223.015 121.381 224.414 109.943 215.348C98.5153 206.281 96.1636 190.646 105.842 178.431C110.458 172.6 116.619 169.374 122.877 168.597L124.247 177.615C120.001 178.081 115.676 180.025 112.615 183.892C106.717 191.345 108.369 201.772 115.929 207.778C123.664 213.91 134.198 212.782 140.184 205.212C143.021 201.627 144.081 197.72 144.032 194.037L135.442 187.225L127.454 197.312L120.632 191.899L134.596 174.252L152.282 188.284C154.022 195.32 152.545 203.628 146.86 210.8H146.879ZM201.9 154.623L173.758 149.084L171.095 151.358L185.73 168.47L178.403 174.738L145.354 136.101L159.191 124.256C163.098 120.913 166.538 119.873 169.949 120.009C173.709 120.233 177.421 121.933 180.065 125.024C182.708 128.114 183.816 132.049 183.456 135.791C183.271 137.666 182.688 139.512 181.6 141.31L210.966 146.859L201.909 154.613L201.9 154.623ZM245.094 125.169L235.095 118.173L218.118 128.911L220.149 140.951L211.637 146.334L202.59 91.8771L208.323 88.2525L253.616 119.766L245.104 125.16L245.094 125.169ZM276.948 110.146C262.77 116.618 248.048 110.642 241.994 97.3481C235.95 84.0545 240.993 69.0702 255.171 62.608C261.925 59.5179 268.892 59.4596 274.82 61.6266L271.934 70.2946C267.94 68.7592 263.198 68.526 258.708 70.5764C250.06 74.5217 246.775 84.5599 250.779 93.3542C254.87 102.353 264.762 106.142 273.537 102.139C279.455 99.4374 282.419 94.5786 283.498 89.8559L292.039 92.5865C290.387 99.6414 285.276 106.366 276.948 110.165V110.146ZM301.689 99.4957L285.451 51.3357L294.595 48.2553L310.823 96.4152L301.679 99.5054L301.689 99.4957ZM333.611 90.7402C327.09 92.3436 320.376 91.0706 314.234 87.65L318.743 79.6622C322.28 82.0819 327.09 83.3743 331.531 82.2762C335.69 81.2462 337.964 77.9228 337.09 74.3273C335.535 67.9915 326.323 69.4297 318.85 67.1558C314.477 65.8342 310.59 63.2008 309.23 57.6327C307.072 48.8286 313.797 41.7834 321.853 39.8108C326.779 38.6058 331.648 38.6738 337.08 40.9963L333.951 49.2367C331.56 47.886 327.955 47.2738 324.758 48.0609C321.221 48.9355 317.655 51.4523 318.588 55.2616C320.541 63.2202 342.357 55.2519 346.428 71.8882C348.576 80.6243 342.357 88.5829 333.621 90.7305L333.611 90.7402ZM396.396 80.2647L393.577 52.084L383.627 73.1515L376.951 73.822L363.016 55.1547L365.834 83.3355L356.233 84.2975L351.18 33.7276L357.934 33.0474L379.089 61.4905L394.18 29.3936L400.934 28.7134L405.996 79.2832L396.396 80.255V80.2647Z" fill="#4B00A5"/>
<path d="M227.292 112.789L213.881 103.479L216.544 119.591L227.292 112.789Z" fill="#4B00A5"/>
<path d="M599.521 302.796L608.927 289.386L592.738 291.767L599.521 302.796Z" fill="#7400FF"/>
<path d="M691.584 408.94C691.584 247.241 555.724 116.667 392.159 125.383C245.279 133.206 127.687 254.15 123.742 401.176C120.399 526.036 218.517 617.886 329.549 658.291C334.301 660.021 339.334 656.542 339.334 651.489V566.694C339.334 562.185 337.129 557.929 333.348 555.46C282.613 522.159 231.276 461.201 235.794 396.638C241.703 312.047 309.822 243.548 394.374 237.193C495.3 229.613 579.852 309.588 579.852 408.94C579.852 468.479 532.518 523.276 485.087 554.401C481.307 556.889 479.072 561.135 479.072 565.654V650.468C479.072 655.531 484.115 658.981 488.877 657.261C597.46 617.788 691.574 530.477 691.574 408.94H691.584ZM462.134 213.939L479.752 166.236L488.955 169.637L471.347 217.34L462.134 213.939ZM519.856 242.586L513.87 239.136L505.756 196.292L489.275 225.007L480.763 220.109L506.067 176.041L512.053 179.481L520.177 222.335L536.658 193.629L545.171 198.517L519.866 242.586H519.856ZM550.632 270.835L573.954 221.178L580.824 228.602L564.78 262.39L599.754 249.038L606.634 256.463L555.325 275.917L550.632 270.844V270.835ZM587.024 320.588L594.098 310.589L583.38 293.175L571.281 295.002L565.908 286.266L620.617 278.162L624.242 284.041L592.417 329.315L587.034 320.579L587.024 320.588ZM605.166 367.893L632.405 347.341L598.325 346.33L596.236 339.742L639.586 308.267L642.579 317.693L615.516 337.351L649.158 338.43L651.247 345.018L624.378 365.299L657.816 365.746L660.799 375.172L607.246 374.472L605.157 367.883L605.166 367.893ZM611.308 417.404C610.686 401.564 621.783 389.991 636.36 389.427C650.946 388.854 662.908 399.378 663.52 415.208C663.821 422.768 661.246 429.347 657 434.099L650.071 428.035C652.996 424.867 655.007 420.494 654.813 415.48C654.424 405.821 646.378 398.853 636.739 399.242C626.866 399.631 619.616 407.482 620.005 417.287C620.19 421.942 621.939 425.654 624.368 428.462L635.329 428.035L634.815 414.955L643.512 414.615L644.415 437.5L621.851 438.384C615.943 434.108 611.658 426.704 611.288 417.404H611.308Z" fill="#7400FF"/>
</svg>
